<?xml version="1.0" encoding="utf-8"?>
<!-- Generator: Adobe Illustrator 26.0.0, SVG Export Plug-In . SVG Version: 6.00 Build 0)  -->
<svg version="1.1" id="圖層_1" xmlns="http://www.w3.org/2000/svg" xmlns:xlink="http://www.w3.org/1999/xlink" x="0px" y="0px"
	 viewBox="0 0 197.7 32.7" style="enable-background:new 0 0 197.7 32.7;" xml:space="preserve">
<style type="text/css">
	.st0{enable-background:new    ;}
	.st1{fill:url(#SVGID_1_);}
	.st2{fill:url(#SVGID_00000116923394230425684050000003846959125691381159_);}
	.st3{fill:url(#SVGID_00000183229444029498633900000006786687967064608439_);}
	.st4{fill:url(#SVGID_00000181766864894590120160000018255872456211974793_);}
	.st5{fill:url(#SVGID_00000147180201713237320060000010462344109361971083_);}
	.st6{fill:url(#SVGID_00000091001229292204556140000013190423089099802270_);}
	.st7{fill:url(#SVGID_00000075867924260140834690000000949937930096262847_);}
	.st8{fill:url(#SVGID_00000049930442157589474960000012210661291330753198_);}
	.st9{fill:url(#SVGID_00000114769873746456718910000011182541761440815807_);}
	.st10{fill:url(#SVGID_00000054253511119111910120000011928653694294131600_);}
	.st11{fill:url(#SVGID_00000052104416564939638980000016062121870202808721_);}
	.st12{fill:url(#SVGID_00000061457764279482758200000007472333195382273923_);}
	.st13{fill:#A46F23;}
	.st14{font-family:'Castellar';}
	.st15{font-size:29.2057px;}
</style>
<g class="st0">
	<g>
		<linearGradient id="SVGID_1_" gradientUnits="userSpaceOnUse" x1="5.2748" y1="17.472" x2="205.5268" y2="17.472">
			<stop  offset="4.581017e-02" style="stop-color:#FFFFFF"/>
			<stop  offset="1" style="stop-color:#000000"/>
		</linearGradient>
		<path class="st1" d="M13.3,5.2l-2.9,0.5c0.4,1.9,1.1,4.1,1.9,6.8l1.5,4.6c0.3,1.1,0.8,2.4,1.5,4.1c0.3-0.6,0.6-1.4,0.9-2.4
			c0.4-1,0.7-1.9,1-2.8l1.7-5.3c0.7-2.1,1.1-3.8,1.4-5L17,5.2V5h6.6v0.1l-2,0.6c-0.4,0.9-1.1,2.6-1.9,5.1l-3.8,11.5
			c-0.5,1.6-0.9,3-1.2,4.1h-0.2c-0.4-1.6-0.9-3.1-1.4-4.5L9.7,11.5c-0.7-2-1.4-3.9-2.2-5.8L5.6,5.2V5h7.7V5.2z M8.1,5.6l6.3,19.1
			l0.4-1.2L8.9,5.6H8.1z"/>
		
			<linearGradient id="SVGID_00000151516560715864920440000012025557884121286801_" gradientUnits="userSpaceOnUse" x1="5.2748" y1="17.472" x2="205.5268" y2="17.472">
			<stop  offset="4.581017e-02" style="stop-color:#FFFFFF"/>
			<stop  offset="1" style="stop-color:#000000"/>
		</linearGradient>
		<path style="fill:url(#SVGID_00000151516560715864920440000012025557884121286801_);" d="M33.5,4.7c1.6,0,2.9,0.3,4.1,1
			c1.1,0.7,2.1,1.6,2.8,2.7c0.7,1.1,1.3,2.3,1.6,3.5c0.3,1.2,0.5,2.4,0.5,3.5c0,1.3-0.2,2.6-0.6,3.8s-1,2.4-1.7,3.4
			c-0.8,1-1.7,1.9-2.8,2.5c-1.1,0.6-2.4,0.9-3.7,0.9c-2,0-3.7-0.6-5-1.7c-1.4-1.1-2.4-2.5-3-4.1c-0.7-1.6-1-3.2-1-4.8
			c0-1.4,0.2-2.7,0.6-4s1-2.5,1.8-3.5c0.8-1,1.7-1.8,2.8-2.4C31.1,5,32.3,4.7,33.5,4.7z M33.1,5.3V5.2c-1,0-2,0.3-3,0.9
			c-1,0.6-1.8,1.3-2.6,2.3s-1.3,2.1-1.7,3.3s-0.6,2.5-0.6,3.9c0,1.7,0.3,3.3,1,4.8s1.7,2.8,2.9,3.8c1.2,1,2.6,1.5,4.1,1.6v-0.2
			c-1.4-0.2-2.7-0.7-3.8-1.7c-1.1-1-1.9-2.2-2.5-3.7s-0.9-3-0.9-4.5c0-1.3,0.2-2.5,0.5-3.7c0.3-1.2,0.8-2.2,1.4-3.2
			c0.6-0.9,1.4-1.7,2.3-2.3S32,5.4,33.1,5.3z M33.6,5.7c-1.1,0-2.2,0.4-3.2,1.2c-1,0.8-1.7,1.9-2.3,3.3s-0.9,3.2-0.9,5.1
			c0,2.1,0.3,3.9,0.9,5.4c0.6,1.5,1.4,2.6,2.4,3.3s2,1.1,3,1.1c0.8,0,1.6-0.2,2.4-0.6c0.8-0.4,1.4-1,2-1.8c0.6-0.8,1.1-1.8,1.4-3
			c0.3-1.2,0.5-2.5,0.5-3.9c0-2-0.2-3.6-0.5-4.7c-0.4-1.2-0.9-2.2-1.6-3.1c-0.6-0.8-1.2-1.3-2-1.7C35.2,5.9,34.4,5.7,33.6,5.7z
			 M34.2,5.2v0.1c0.7,0.1,1.4,0.3,2.2,0.6c0.7,0.4,1.4,0.9,2,1.7s1.1,1.8,1.5,3.1c0.4,1.3,0.6,2.9,0.6,4.7c0,1.2-0.1,2.4-0.3,3.5
			c-0.2,1.1-0.6,2.1-1.1,3.1c-0.5,0.9-1.1,1.7-2,2.3c-0.8,0.6-1.8,1-2.9,1.1v0.2c0.9-0.1,1.8-0.3,2.7-0.8s1.6-1.1,2.3-2
			c0.7-0.9,1.2-1.9,1.6-3.2c0.4-1.3,0.6-2.7,0.6-4.2c0-1.7-0.2-3.2-0.6-4.5c-0.4-1.3-0.9-2.4-1.6-3.2c-0.7-0.9-1.4-1.5-2.3-1.9
			C35.9,5.4,35.1,5.2,34.2,5.2z"/>
		
			<linearGradient id="SVGID_00000009575888902673724630000015002714975580686250_" gradientUnits="userSpaceOnUse" x1="5.2748" y1="17.472" x2="205.5268" y2="17.472">
			<stop  offset="4.581017e-02" style="stop-color:#FFFFFF"/>
			<stop  offset="1" style="stop-color:#000000"/>
		</linearGradient>
		<path style="fill:url(#SVGID_00000009575888902673724630000015002714975580686250_);" d="M61.7,18.1l-1.8,0.5
			c-0.1,0.7-0.2,1.6-0.2,2.7c-0.1,1.1-0.1,2.1-0.1,2.9c-0.8,0.4-1.5,0.8-2.1,1c-0.5,0.2-1.2,0.4-1.9,0.6c-0.7,0.2-1.5,0.3-2.4,0.3
			c-1.5,0-2.7-0.3-3.8-0.9c-1.1-0.6-2-1.4-2.7-2.4s-1.3-2.1-1.6-3.3s-0.5-2.4-0.5-3.7c0-1.5,0.2-2.8,0.6-4.2
			c0.4-1.3,0.9-2.5,1.7-3.6s1.7-1.9,2.7-2.5c1.1-0.6,2.3-0.9,3.7-0.9c0.2,0,0.4,0,0.5,0c0.1,0,0.3,0,0.5,0s0.4,0,0.7,0
			c0.9,0.1,1.7,0.1,2.6,0.1c0.7,0,1.3,0,1.8-0.1l0.2,4.8h-0.2l-0.7-3.2c-0.3-0.1-0.6-0.2-1-0.3c-0.4-0.1-0.9-0.2-1.4-0.3
			c-0.5-0.1-1.1-0.1-1.7-0.1c-1.3,0-2.4,0.3-3.4,0.8s-1.7,1.3-2.3,2.2c-0.6,0.9-1,1.9-1.3,3C47.2,12.8,47,14,47,15.1
			c0,1.3,0.2,2.5,0.6,3.7c0.4,1.2,0.9,2.2,1.6,3.1c0.7,0.9,1.5,1.6,2.4,2.1c0.9,0.5,1.9,0.7,2.9,0.7c0.3,0,0.5,0,0.8-0.1
			s0.6-0.1,0.9-0.1c0.3-0.1,0.6-0.1,1-0.2c0.2-0.8,0.2-1.7,0.2-2.7c0-1.3-0.1-2.3-0.2-3.1l-2.9-0.5v-0.2h7.4V18.1z M54.5,5.2V5.1
			C54,5.1,53.6,5,53.2,5c-1.2,0-2.3,0.3-3.3,0.8c-1,0.5-1.9,1.3-2.6,2.2c-0.7,1-1.3,2.1-1.7,3.4S45,14.3,45,15.8
			c0,1.8,0.3,3.4,1,4.9c0.7,1.5,1.7,2.7,3,3.6c1.3,0.9,2.8,1.3,4.5,1.3c0.3,0,0.8,0,1.3-0.1v-0.1c-1.6,0-3-0.3-4.2-0.9
			c-1.2-0.6-2.1-1.4-2.8-2.4c-0.7-1-1.2-2.1-1.6-3.3c-0.3-1.2-0.5-2.4-0.5-3.6c0-1.5,0.2-2.8,0.5-4.1s0.9-2.3,1.6-3.2
			s1.6-1.6,2.6-2.1c1.1-0.5,2.2-0.7,3.6-0.7H54.5z M57.7,18.5v5.6l0.7-0.4v-5.2H57.7z"/>
		
			<linearGradient id="SVGID_00000101813468716612724670000014280242485906381494_" gradientUnits="userSpaceOnUse" x1="5.2748" y1="17.472" x2="205.5268" y2="17.472">
			<stop  offset="4.581017e-02" style="stop-color:#FFFFFF"/>
			<stop  offset="1" style="stop-color:#000000"/>
		</linearGradient>
		<path style="fill:url(#SVGID_00000101813468716612724670000014280242485906381494_);" d="M64.6,19.9v-7.9c0-1.8-0.1-3.9-0.3-6.3
			l-2.3-0.5V5h8.1v0.1l-2.9,0.5c-0.1,0.7-0.1,1.5-0.2,2.4c0,0.9-0.1,1.9-0.1,3s0,1.9,0,2.5v5.9c0,1.4,0.2,2.5,0.7,3.4
			c0.4,0.9,1,1.5,1.7,1.8c0.7,0.4,1.5,0.5,2.4,0.5c1.5,0,2.6-0.5,3.5-1.5c0.8-1,1.3-2.5,1.3-4.7v-6.1c0-1.1,0-2.4-0.1-3.8
			c-0.1-1.5-0.1-2.6-0.2-3.4l-2.9-0.5V5h8v0.1l-2.3,0.5c-0.1,0.6-0.2,1.6-0.2,3.1c-0.1,1.4-0.1,2.6-0.1,3.6v6.9c0,1.1-0.1,2-0.3,2.7
			c-0.2,0.8-0.5,1.4-0.9,1.9c-0.3,0.4-0.6,0.7-0.9,0.9c-0.3,0.3-0.7,0.5-1.2,0.7c-0.5,0.2-1,0.3-1.6,0.4c-0.6,0.1-1.3,0.1-2.1,0.1
			c-1.4,0-2.6-0.2-3.6-0.6s-1.8-1.1-2.4-2C64.9,22.6,64.6,21.4,64.6,19.9z M70.9,25.8v-0.2c-1-0.1-1.9-0.3-2.7-0.8s-1.4-1.1-1.8-2.1
			c-0.4-0.9-0.7-2-0.7-3.3V5.6H65v14.3c0,1.8,0.5,3.1,1.4,4.2C67.3,25.1,68.9,25.6,70.9,25.8z M72.4,25.6v0.2
			c0.9-0.1,1.6-0.3,2.3-0.5c0.6-0.3,1.2-0.7,1.6-1.3s0.7-1.2,0.9-2c0.2-0.8,0.3-1.7,0.3-2.8V5.6h-0.8v13.5c0,1.9-0.3,3.4-1,4.5
			S73.9,25.4,72.4,25.6z"/>
		
			<linearGradient id="SVGID_00000165936664049244185170000017830939690427494549_" gradientUnits="userSpaceOnUse" x1="5.2748" y1="17.472" x2="205.5268" y2="17.472">
			<stop  offset="4.581017e-02" style="stop-color:#FFFFFF"/>
			<stop  offset="1" style="stop-color:#000000"/>
		</linearGradient>
		<path style="fill:url(#SVGID_00000165936664049244185170000017830939690427494549_);" d="M81.5,5.2V5h11.8l0.3,4.4h-0.2L92.5,6
			c-0.6-0.1-1.3-0.1-2.1-0.1C89,5.9,87.8,6,87,6.3c-0.1,1.5-0.2,3.3-0.2,5.3c0,1.2,0,2.2,0.1,3c1.2,0.1,1.9,0.1,2.2,0.1
			c0.8,0,1.7-0.1,2.6-0.2l0.5-2.4h0.2v6.1h-0.2l-0.5-2.6c-0.6-0.1-1.3-0.1-2.1-0.1c-1,0-1.9,0.1-2.7,0.2c-0.1,1.1-0.1,2.2-0.1,3.2
			c0,1.4,0,2.5,0.1,3.3s0.1,1.6,0.1,2.3c0.9,0.4,2.1,0.5,3.5,0.5c0.8,0,1.5,0,2.1-0.1l0.9-3.4h0.2l-0.2,4.5H81.5v-0.1l2.6-0.5
			c0.1-0.4,0.1-1,0.2-1.8c0-0.8,0.1-1.7,0.1-2.7c0-1,0.1-1.8,0.1-2.5c0-0.7,0-1.3,0-1.8V13c0-0.5,0-1.1,0-1.9c0-0.8-0.1-1.7-0.1-2.6
			c0-0.9-0.1-1.8-0.2-2.7L81.5,5.2z M84.8,5.6v19.8h0.8V5.6H84.8z"/>
		
			<linearGradient id="SVGID_00000132048389120602616040000016240332060101844631_" gradientUnits="userSpaceOnUse" x1="5.2748" y1="17.472" x2="205.5268" y2="17.472">
			<stop  offset="4.581017e-02" style="stop-color:#FFFFFF"/>
			<stop  offset="1" style="stop-color:#000000"/>
		</linearGradient>
		<path style="fill:url(#SVGID_00000132048389120602616040000016240332060101844631_);" d="M94.4,5.2V5h11.8l0.3,4.4h-0.2L105.5,6
			c-0.6-0.1-1.3-0.1-2.1-0.1c-1.4,0-2.6,0.1-3.4,0.4c-0.1,1.5-0.2,3.3-0.2,5.3c0,1.2,0,2.2,0.1,3c1.2,0.1,1.9,0.1,2.2,0.1
			c0.8,0,1.7-0.1,2.6-0.2l0.5-2.4h0.2v6.1h-0.2l-0.5-2.6c-0.6-0.1-1.3-0.1-2.1-0.1c-1,0-1.9,0.1-2.7,0.2c-0.1,1.1-0.1,2.2-0.1,3.2
			c0,1.4,0,2.5,0.1,3.3s0.1,1.6,0.1,2.3c0.9,0.4,2.1,0.5,3.5,0.5c0.8,0,1.5,0,2.1-0.1l0.9-3.4h0.2l-0.2,4.5H94.5v-0.1l2.6-0.5
			c0.1-0.4,0.1-1,0.2-1.8c0-0.8,0.1-1.7,0.1-2.7c0-1,0.1-1.8,0.1-2.5c0-0.7,0-1.3,0-1.8V13c0-0.5,0-1.1,0-1.9c0-0.8-0.1-1.7-0.1-2.6
			c0-0.9-0.1-1.8-0.2-2.7L94.4,5.2z M97.8,5.6v19.8h0.8V5.6H97.8z"/>
		
			<linearGradient id="SVGID_00000021822967091288355150000002564171450449066933_" gradientUnits="userSpaceOnUse" x1="5.2748" y1="17.472" x2="205.5268" y2="17.472">
			<stop  offset="4.581017e-02" style="stop-color:#FFFFFF"/>
			<stop  offset="1" style="stop-color:#000000"/>
		</linearGradient>
		<path style="fill:url(#SVGID_00000021822967091288355150000002564171450449066933_);" d="M108.1,20.9l0.8,3.5
			c0.4,0.2,0.9,0.4,1.5,0.6c0.6,0.2,1.1,0.2,1.5,0.2c0.6,0,1.1-0.1,1.5-0.4c0.5-0.2,0.8-0.6,1.1-0.9c0.3-0.4,0.5-0.8,0.7-1.3
			c0.2-0.5,0.2-0.9,0.2-1.4c0-0.9-0.2-1.7-0.7-2.4c-0.5-0.6-1.3-1.5-2.5-2.5c-1.2-1-2-1.8-2.5-2.5c-0.4-0.6-0.8-1.2-1-1.8
			c-0.2-0.6-0.3-1.3-0.3-2c0-0.8,0.2-1.6,0.5-2.4c0.3-0.8,0.9-1.5,1.6-2s1.6-0.8,2.7-0.8c0.5,0,1,0,1.5,0.1c0.5,0.1,0.9,0.1,1.1,0.1
			c0.2,0,0.3,0,0.5,0c0.2,0,0.3,0,0.4,0c0.1,0,0.2,0,0.3,0l0.1,4.9h-0.1l-0.7-3.3c-1-0.6-1.9-0.9-2.7-0.9c-0.6,0-1.2,0.2-1.7,0.5
			s-0.9,0.7-1.2,1.3s-0.4,1.1-0.4,1.8c0,0.7,0.2,1.3,0.6,1.9s0.9,1.2,1.5,1.7c0.7,0.6,1.4,1.2,2.1,1.8c0.7,0.6,1.3,1.2,1.8,1.8
			c0.9,1.1,1.3,2.4,1.3,3.9c0,0.8-0.2,1.7-0.5,2.6c-0.3,0.9-0.9,1.6-1.7,2.3s-1.8,0.9-3.1,0.9c-0.4,0-1,0-1.6-0.1s-1.1-0.1-1.4-0.1
			c-0.1,0-0.2,0-0.3,0c-0.1,0-0.2,0-0.4,0c-0.2,0-0.3,0-0.3,0l-0.2-5H108.1z M113.5,5.1h-0.4c-0.8,0-1.6,0.2-2.2,0.6
			c-0.7,0.4-1.2,1-1.6,1.8c-0.4,0.8-0.6,1.6-0.6,2.6c0,1.2,0.4,2.3,1.2,3.4c0.4,0.4,0.7,0.8,1,1.1c0.3,0.3,0.8,0.7,1.4,1.3
			c0.6,0.6,1.1,1,1.5,1.4c0.4,0.4,0.7,0.7,0.9,1c0.7,0.9,1,1.8,1,2.9c0,0.7-0.2,1.4-0.5,2.1c-0.3,0.7-0.7,1.2-1.3,1.6
			c-0.6,0.4-1.3,0.6-2,0.6v0.2c0.9,0,1.7-0.2,2.4-0.6c0.7-0.4,1.2-1,1.6-1.8c0.4-0.7,0.6-1.5,0.6-2.3c0-0.7-0.1-1.3-0.3-1.8
			c-0.2-0.6-0.5-1.1-0.9-1.7c-0.3-0.3-0.7-0.8-1.4-1.4s-1.3-1.2-2-1.8c-0.7-0.6-1.2-1.1-1.5-1.5c-0.8-1-1.2-2.1-1.2-3.3
			c0-1,0.4-2,1.1-2.9c0.7-0.9,1.8-1.4,3.2-1.4V5.1z"/>
		
			<linearGradient id="SVGID_00000142888664759071758600000000249712850982180016_" gradientUnits="userSpaceOnUse" x1="5.2748" y1="17.472" x2="205.5268" y2="17.472">
			<stop  offset="4.581017e-02" style="stop-color:#FFFFFF"/>
			<stop  offset="1" style="stop-color:#000000"/>
		</linearGradient>
		<path style="fill:url(#SVGID_00000142888664759071758600000000249712850982180016_);" d="M118.9,20.9l0.8,3.5
			c0.4,0.2,0.9,0.4,1.5,0.6c0.6,0.2,1.1,0.2,1.5,0.2c0.6,0,1.1-0.1,1.5-0.4c0.5-0.2,0.8-0.6,1.1-0.9c0.3-0.4,0.5-0.8,0.7-1.3
			c0.2-0.5,0.2-0.9,0.2-1.4c0-0.9-0.2-1.7-0.7-2.4c-0.5-0.6-1.3-1.5-2.5-2.5c-1.2-1-2-1.8-2.5-2.5c-0.4-0.6-0.8-1.2-1-1.8
			c-0.2-0.6-0.3-1.3-0.3-2c0-0.8,0.2-1.6,0.5-2.4c0.3-0.8,0.9-1.5,1.6-2s1.6-0.8,2.7-0.8c0.5,0,1,0,1.5,0.1c0.5,0.1,0.9,0.1,1.1,0.1
			c0.2,0,0.3,0,0.5,0c0.2,0,0.3,0,0.4,0c0.1,0,0.2,0,0.3,0l0.1,4.9h-0.1L127,6.4c-1-0.6-1.9-0.9-2.7-0.9c-0.6,0-1.2,0.2-1.7,0.5
			s-0.9,0.7-1.2,1.3S121,8.4,121,9.1c0,0.7,0.2,1.3,0.6,1.9s0.9,1.2,1.5,1.7c0.7,0.6,1.4,1.2,2.1,1.8c0.7,0.6,1.3,1.2,1.8,1.8
			c0.9,1.1,1.3,2.4,1.3,3.9c0,0.8-0.2,1.7-0.5,2.6c-0.3,0.9-0.9,1.6-1.7,2.3s-1.8,0.9-3.1,0.9c-0.4,0-1,0-1.6-0.1s-1.1-0.1-1.4-0.1
			c-0.1,0-0.2,0-0.3,0c-0.1,0-0.2,0-0.4,0c-0.2,0-0.3,0-0.3,0l-0.2-5H118.9z M124.3,5.1H124c-0.8,0-1.6,0.2-2.2,0.6
			c-0.7,0.4-1.2,1-1.6,1.8c-0.4,0.8-0.6,1.6-0.6,2.6c0,1.2,0.4,2.3,1.2,3.4c0.4,0.4,0.7,0.8,1,1.1c0.3,0.3,0.8,0.7,1.4,1.3
			c0.6,0.6,1.1,1,1.5,1.4c0.4,0.4,0.7,0.7,0.9,1c0.7,0.9,1,1.8,1,2.9c0,0.7-0.2,1.4-0.5,2.1c-0.3,0.7-0.7,1.2-1.3,1.6
			c-0.6,0.4-1.3,0.6-2,0.6v0.2c0.9,0,1.7-0.2,2.4-0.6c0.7-0.4,1.2-1,1.6-1.8c0.4-0.7,0.6-1.5,0.6-2.3c0-0.7-0.1-1.3-0.3-1.8
			c-0.2-0.6-0.5-1.1-0.9-1.7c-0.3-0.3-0.7-0.8-1.4-1.4s-1.3-1.2-2-1.8c-0.7-0.6-1.2-1.1-1.5-1.5c-0.8-1-1.2-2.1-1.2-3.3
			c0-1,0.4-2,1.1-2.9c0.7-0.9,1.8-1.4,3.2-1.4V5.1z"/>
		
			<linearGradient id="SVGID_00000131345301946746664750000013162002579191608235_" gradientUnits="userSpaceOnUse" x1="5.2748" y1="17.472" x2="205.5268" y2="17.472">
			<stop  offset="4.581017e-02" style="stop-color:#FFFFFF"/>
			<stop  offset="1" style="stop-color:#000000"/>
		</linearGradient>
		<path style="fill:url(#SVGID_00000131345301946746664750000013162002579191608235_);" d="M129.1,5.2V5h11.8l0.3,4.4h-0.2L140.1,6
			c-0.6-0.1-1.3-0.1-2.1-0.1c-1.4,0-2.6,0.1-3.4,0.4c-0.1,1.5-0.2,3.3-0.2,5.3c0,1.2,0,2.2,0.1,3c1.2,0.1,1.9,0.1,2.2,0.1
			c0.8,0,1.7-0.1,2.6-0.2l0.5-2.4h0.2v6.1h-0.2l-0.5-2.6c-0.6-0.1-1.3-0.1-2.1-0.1c-1,0-1.9,0.1-2.7,0.2c-0.1,1.1-0.1,2.2-0.1,3.2
			c0,1.4,0,2.5,0.1,3.3s0.1,1.6,0.1,2.3c0.9,0.4,2.1,0.5,3.5,0.5c0.8,0,1.5,0,2.1-0.1l0.9-3.4h0.2l-0.2,4.5h-11.9v-0.1l2.6-0.5
			c0.1-0.4,0.1-1,0.2-1.8c0-0.8,0.1-1.7,0.1-2.7c0-1,0.1-1.8,0.1-2.5c0-0.7,0-1.3,0-1.8V13c0-0.5,0-1.1,0-1.9c0-0.8-0.1-1.7-0.1-2.6
			c0-0.9-0.1-1.8-0.2-2.7L129.1,5.2z M132.4,5.6v19.8h0.8V5.6H132.4z"/>
		
			<linearGradient id="SVGID_00000154396870281723698110000010326124149894640781_" gradientUnits="userSpaceOnUse" x1="5.2748" y1="17.472" x2="205.5268" y2="17.472">
			<stop  offset="4.581017e-02" style="stop-color:#FFFFFF"/>
			<stop  offset="1" style="stop-color:#000000"/>
		</linearGradient>
		<path style="fill:url(#SVGID_00000154396870281723698110000010326124149894640781_);" d="M142.1,5.2V5h5.6
			c0.4,0.6,0.8,1.4,1.4,2.3c0.6,0.9,1.1,1.7,1.6,2.4l5,7.1c0.7,0.9,1.2,1.6,1.5,2.1c0.4,0.5,0.8,1.1,1.4,1.8c0-0.7,0.1-1.3,0.1-1.8
			s0-1.1,0-1.6v-6.2c0-2.2-0.1-4-0.3-5.5l-2.7-0.5V5h6.6v0.1l-2.7,0.6c-0.1,1.3-0.2,3-0.2,5.1v15.6h-0.1c-1.1-1.8-2.2-3.6-3.3-5.2
			l-6.8-9.7c-1-1.4-1.9-2.5-2.6-3.3c-0.1,1.3-0.2,2.5-0.2,3.6v9c0,1.2,0.1,2.6,0.2,4.3l2.8,0.5v0.1h-6.7v-0.1l2.7-0.5
			c0.1-0.7,0.2-1.7,0.2-2.9c0-1.3,0.1-2.4,0.1-3.4v-7c0-0.8,0-1.6,0-2.5c0-0.8-0.1-1.6-0.1-2.4l-1.5-1.4L142.1,5.2z M145.4,5.6
			l13.3,19.2v-1.3L146.3,5.6H145.4z"/>
		
			<linearGradient id="SVGID_00000119098586830607027340000016759286724044381597_" gradientUnits="userSpaceOnUse" x1="5.2748" y1="17.472" x2="205.5268" y2="17.472">
			<stop  offset="4.581017e-02" style="stop-color:#FFFFFF"/>
			<stop  offset="1" style="stop-color:#000000"/>
		</linearGradient>
		<path style="fill:url(#SVGID_00000119098586830607027340000016759286724044381597_);" d="M179.1,22.1l-1.6,3.9
			c-0.7-0.1-1.2-0.1-1.5-0.1c-0.4,0-0.9,0-1.6,0.1c-0.7,0.1-1.2,0.1-1.5,0.1c-1.5,0-2.8-0.3-4-0.9c-1.1-0.6-2.1-1.4-2.8-2.4
			c-0.7-1-1.3-2.1-1.7-3.4c-0.4-1.2-0.5-2.5-0.5-3.7c0-1.6,0.2-3.1,0.6-4.4c0.4-1.4,1-2.5,1.8-3.5s1.7-1.7,2.7-2.2s2.1-0.8,3.3-0.8
			c0.3,0,0.5,0,0.6,0s0.3,0,0.5,0s0.5,0,0.8,0c1,0.1,1.8,0.1,2.3,0.1c1.2,0,1.9,0,2.3-0.1l0.1,4.8h-0.1l-0.7-3.2
			c-0.2-0.1-0.6-0.2-1.2-0.3c-0.6-0.1-1.1-0.2-1.6-0.3s-1.1-0.1-1.7-0.1c-1.5,0-2.8,0.4-3.9,1.2c-1.1,0.8-1.9,1.9-2.4,3.3
			s-0.8,3.1-0.8,5c0,1.5,0.2,2.8,0.6,4c0.4,1.2,0.9,2.3,1.6,3.1s1.5,1.5,2.4,2c0.9,0.4,1.8,0.7,2.8,0.7c1,0,1.9-0.2,2.8-0.6
			c0.9-0.4,1.6-1.2,2.3-2.4L179.1,22.1z M174.1,5.1h-1.3c-1.3,0-2.5,0.3-3.5,0.8c-1.1,0.5-2,1.3-2.7,2.3s-1.3,2.1-1.7,3.4
			c-0.4,1.3-0.6,2.6-0.6,4.1c0,1.3,0.2,2.6,0.6,3.8c0.4,1.2,1,2.3,1.7,3.2c0.8,0.9,1.7,1.7,2.8,2.2c1.1,0.5,2.3,0.8,3.6,0.8
			c0.6,0,1,0,1.1,0v-0.2c-1.5,0-2.8-0.2-3.9-0.7c-1.1-0.5-2.1-1.3-2.8-2.3c-0.7-1-1.3-2.1-1.7-3.3c-0.4-1.2-0.5-2.5-0.5-3.7
			c0-1.2,0.2-2.5,0.5-3.7c0.3-1.2,0.8-2.3,1.5-3.3c0.7-1,1.5-1.8,2.6-2.4c1-0.6,2.3-0.9,3.7-0.9h0.8V5.1z"/>
		
			<linearGradient id="SVGID_00000153690222389485022510000017087165896862809497_" gradientUnits="userSpaceOnUse" x1="5.2748" y1="17.472" x2="205.5268" y2="17.472">
			<stop  offset="4.581017e-02" style="stop-color:#FFFFFF"/>
			<stop  offset="1" style="stop-color:#000000"/>
		</linearGradient>
		<path style="fill:url(#SVGID_00000153690222389485022510000017087165896862809497_);" d="M180,5.2V5h11.8l0.3,4.4h-0.2L191.1,6
			c-0.6-0.1-1.3-0.1-2.1-0.1c-1.4,0-2.6,0.1-3.4,0.4c-0.1,1.5-0.2,3.3-0.2,5.3c0,1.2,0,2.2,0.1,3c1.2,0.1,1.9,0.1,2.2,0.1
			c0.8,0,1.7-0.1,2.6-0.2l0.5-2.4h0.2v6.1h-0.2l-0.5-2.6c-0.6-0.1-1.3-0.1-2.1-0.1c-1,0-1.9,0.1-2.7,0.2c-0.1,1.1-0.1,2.2-0.1,3.2
			c0,1.4,0,2.5,0.1,3.3s0.1,1.6,0.1,2.3c0.9,0.4,2.1,0.5,3.5,0.5c0.8,0,1.5,0,2.1-0.1l0.9-3.4h0.2l-0.2,4.5H180v-0.1l2.6-0.5
			c0.1-0.4,0.1-1,0.2-1.8c0-0.8,0.1-1.7,0.1-2.7c0-1,0.1-1.8,0.1-2.5c0-0.7,0-1.3,0-1.8V13c0-0.5,0-1.1,0-1.9c0-0.8-0.1-1.7-0.1-2.6
			c0-0.9-0.1-1.8-0.2-2.7L180,5.2z M183.4,5.6v19.8h0.8V5.6H183.4z"/>
	</g>
	<text transform="matrix(0.7749 0 0 1 5.2747 25.9227)" class="st13 st14 st15">vogueessence</text>
</g>
</svg>
